<svg width="82" height="36" viewBox="0 0 82 36" fill="none" xmlns="http://www.w3.org/2000/svg">
<path d="M0.276 27H16.44V22.536H5.604V0.323998H0.276V27ZM28.5532 27.504C33.5932 27.504 38.2372 23.616 38.2372 16.92C38.2372 10.224 33.5932 6.336 28.5532 6.336C23.5132 6.336 18.8692 10.224 18.8692 16.92C18.8692 23.616 23.5132 27.504 28.5532 27.504ZM28.5532 23.184C25.8172 23.184 24.2692 20.736 24.2692 16.92C24.2692 13.14 25.8172 10.656 28.5532 10.656C31.2892 10.656 32.8372 13.14 32.8372 16.92C32.8372 20.736 31.2892 23.184 28.5532 23.184ZM49.7563 35.748C56.4883 35.748 60.7363 32.652 60.7363 28.584C60.7363 25.056 58.0723 23.544 53.2123 23.544H49.7923C47.4163 23.544 46.6243 22.968 46.6243 21.888C46.6243 21.06 46.9483 20.628 47.4883 20.16C48.3523 20.448 49.2883 20.628 50.0803 20.628C54.4003 20.628 57.8563 18.324 57.8563 13.788C57.8563 12.528 57.4603 11.412 56.9563 10.728H60.3763V6.84H53.1043C52.2763 6.552 51.1963 6.336 50.0803 6.336C45.7963 6.336 41.9443 8.892 41.9443 13.608C41.9443 15.984 43.2403 17.892 44.6443 18.9V19.044C43.4203 19.908 42.3763 21.312 42.3763 22.824C42.3763 24.48 43.1683 25.524 44.2123 26.208V26.388C42.3763 27.432 41.3323 28.872 41.3323 30.564C41.3323 34.128 45.0043 35.748 49.7563 35.748ZM50.0803 17.352C48.3163 17.352 46.9123 16.02 46.9123 13.608C46.9123 11.268 48.2803 9.936 50.0803 9.936C51.8803 9.936 53.2483 11.268 53.2483 13.608C53.2483 16.02 51.8443 17.352 50.0803 17.352ZM50.5483 32.4C47.6323 32.4 45.7603 31.428 45.7603 29.736C45.7603 28.908 46.1563 28.116 47.0563 27.396C47.7763 27.576 48.6403 27.684 49.8643 27.684H52.3123C54.4723 27.684 55.6603 28.044 55.6603 29.484C55.6603 31.068 53.5723 32.4 50.5483 32.4ZM71.9008 27.504C76.9408 27.504 81.5848 23.616 81.5848 16.92C81.5848 10.224 76.9408 6.336 71.9008 6.336C66.8608 6.336 62.2168 10.224 62.2168 16.92C62.2168 23.616 66.8608 27.504 71.9008 27.504ZM71.9008 23.184C69.1648 23.184 67.6168 20.736 67.6168 16.92C67.6168 13.14 69.1648 10.656 71.9008 10.656C74.6368 10.656 76.1848 13.14 76.1848 16.92C76.1848 20.736 74.6368 23.184 71.9008 23.184Z" fill="black"/>
</svg>
